<svg xmlns="http://www.w3.org/2000/svg" width="16" height="16" viewBox="0 0 16 16">
  <circle cx="8" cy="8" r="2.4" fill="#222"/>
  <path fill="#222" d="M8.38 2.61A5.4 5.4 0 0 1 11.02 12.48L9.90 10.82A3.4 3.4 0 0 0 8.24 4.61ZM10.37 12.85A5.4 5.4 0 0 1 3.07 10.20L4.89 9.38A3.4 3.4 0 0 0 9.49 11.06ZM2.81 9.49A5.4 5.4 0 0 1 7.62 2.61L7.76 4.61A3.4 3.4 0 0 0 4.73 8.94ZM8.54 0.22A7.8 7.8 0 0 1 15.78 7.46L13.99 7.58A6.0 6.0 0 0 0 8.42 2.01ZM15.78 8.54A7.8 7.8 0 0 1 13.01 13.98L11.86 12.60A6.0 6.0 0 0 0 13.99 8.42ZM0.50 10.15A7.8 7.8 0 0 1 2.58 2.39L3.83 3.68A6.0 6.0 0 0 0 2.23 9.65Z"/>
</svg>
